<?xml version="1.0" encoding="utf-8"?>
<!-- Generator: Adobe Illustrator 23.0.1, SVG Export Plug-In . SVG Version: 6.00 Build 0)  -->
<svg version="1.1" id="Layer_1" xmlns="http://www.w3.org/2000/svg" xmlns:xlink="http://www.w3.org/1999/xlink" x="0px" y="0px"
	 viewBox="0 0 1190.55 841.89" style="enable-background:new 0 0 1190.55 841.89;" xml:space="preserve">
<style type="text/css">
	.st0{fill:#F6A006;}
	.st1{fill:#FFFFFF;}
	.st2{font-family:'HendersonSansBasicExtraLight';}
	.st3{font-size:370.7354px;}
</style>
<ellipse class="st0" cx="566.59" cy="403.43" rx="311.05" ry="302.55"/>
<g>
	<g>
		<path class="st1" d="M768.96,487.34c-15.73,26.96-44.19,41.57-79.39,41.57c-56.17,0-97.37-38.57-97.37-99.24
			c0-63.29,39.7-100.36,95.12-100.36c36.33,0,65.53,15.73,81.26,42.32l1.12-37.07h18.35v187.24h-18.35
			C769.33,510.55,768.96,498.57,768.96,487.34z M768.59,455.88c0.38-8.61,0.38-17.6,0.38-26.96c0-8.99,0-17.98-0.38-27.34
			c-9.36-32.96-37.82-53.93-76.77-53.93c-48.68,0-80.14,32.21-80.14,83.14c0,48.31,32.21,80.14,80.51,80.14
			C731.14,510.93,758.85,489.96,768.59,455.88z"/>
	</g>
	<g>
		<g>
			<path class="st1" d="M658.35,294.97c0-24.38,15.51-39.89,39-39.89c23.79,0,39.74,15.66,39.74,39.15
				c0,24.52-15.66,39.89-39.3,39.89S658.35,318.61,658.35,294.97z M697.35,264.69c-17.58,0-29.1,11.52-29.1,29.84
				c0,18.17,11.67,30.14,29.55,30.14c17.58,0,29.25-11.38,29.25-29.84C727.04,276.8,715.22,264.69,697.35,264.69z"/>
			<path class="st1" d="M697.79,335.62c-24.49,0-40.95-16.34-40.95-40.65c0-25.14,15.9-41.39,40.5-41.39
				c24.67,0,41.24,16.34,41.24,40.65C738.59,319.38,722.58,335.62,697.79,335.62z M697.35,256.58c-22.78,0-37.5,15.07-37.5,38.39
				c0,22.87,14.89,37.65,37.95,37.65c22.96,0,37.8-15.07,37.8-38.39C735.59,271.71,720.22,256.58,697.35,256.58z M697.79,326.17
				c-18.57,0-31.05-12.71-31.05-31.64c0-19.04,12.01-31.34,30.6-31.34c18.66,0,31.2,12.71,31.2,31.64
				C728.54,313.86,716.47,326.17,697.79,326.17z M697.35,266.19c-16.77,0-27.6,11.12-27.6,28.34c0,17.4,11.01,28.64,28.05,28.64
				c17.12,0,27.75-10.86,27.75-28.34C725.54,277.7,714.21,266.19,697.35,266.19z"/>
		</g>
	</g>
</g>
<text transform="matrix(1 0 0 1 285.0862 526.903)" class="st1 st2 st3">G</text>
</svg>
