<?xml version="1.0" encoding="utf-8"?>
<!-- Generator: Adobe Illustrator 23.0.1, SVG Export Plug-In . SVG Version: 6.00 Build 0)  -->
<svg version="1.1" id="Layer_1" xmlns="http://www.w3.org/2000/svg" xmlns:xlink="http://www.w3.org/1999/xlink" x="0px" y="0px"
	 viewBox="0 0 300 300" style="enable-background:new 0 0 300 300;" xml:space="preserve">
<style type="text/css">
	.st0{fill:#F7A005;}
</style>
<ellipse class="st0" cx="195.9" cy="270.3" rx="22.2" ry="22.2"/>
<path class="st0" d="M15.3,122.4h109.2c1.5,0,2.7-1.2,2.7-2.7V10.2c0-1.5-1.2-2.7-2.7-2.7C62.7,7.5,12.6,57.9,12.6,119.4
	C12.6,121.2,13.8,122.4,15.3,122.4z"/>
<path class="st0" d="M280.8,89.7h-16.2c-2.1,0-4.2,0.9-5.4,2.7l-31.8,40.5H15.3c-1.5,0-2.7,1.2-2.7,2.7
	c0,61.8,50.4,111.9,111.9,111.9c59.1,0,107.7-45.9,111.6-104.1l31.5-40.2h12.9c3.9,0,6.9-3,6.9-6.9
	C287.4,92.4,284.4,89.7,280.8,89.7z"/>
<circle class="st0" cx="53.1" cy="270.3" r="22.2"/>
</svg>
