<svg height='300px' width='300px'  fill="#000000" xmlns="http://www.w3.org/2000/svg" xmlns:xlink="http://www.w3.org/1999/xlink" version="1.1" x="0px" y="0px" viewBox="0 0 100 100" style="enable-background:new 0 0 100 100;" xml:space="preserve"><ellipse cx="65.3" cy="90.1" rx="7.4" ry="7.4"></ellipse><path d="M5.1,40.8h36.4c0.5,0,0.9-0.4,0.9-0.9V3.4c0-0.5-0.4-0.9-0.9-0.9C20.9,2.5,4.2,19.3,4.2,39.8C4.2,40.4,4.6,40.8,5.1,40.8z"></path><path d="M93.6,29.9h-5.4c-0.7,0-1.4,0.3-1.8,0.9L75.8,44.3H5.1c-0.5,0-0.9,0.4-0.9,0.9c0,20.6,16.8,37.3,37.3,37.3  c19.7,0,35.9-15.3,37.2-34.7l10.5-13.4h4.3c1.3,0,2.3-1,2.3-2.3S94.8,29.9,93.6,29.9z"></path><circle cx="17.7" cy="90.1" r="7.4"></circle></svg>