<svg height='300px' width='300px'  fill="#000000" xmlns="http://www.w3.org/2000/svg" xmlns:xlink="http://www.w3.org/1999/xlink" version="1.1" x="0px" y="0px" viewBox="0 0 128 128" style="enable-background:new 0 0 128 128;" xml:space="preserve"><g><g><path d="M53.7,79.5c-1.7-1.2-3.6-2.1-5.5-2.7L47.4,106l-0.3,12c-0.2,0.4,0,3,0,3.1c0.8,2.2,2.8,3.9,5.3,3.9c2.4,0,4.4-1.5,5.3-3.6    c0,0,2.1-15.7,3.9-27.1c0.1-0.8,0.2-1.5,0.4-2.2c-0.1-0.4-0.1-0.7-0.2-1.1C60.6,86.5,57.7,82.3,53.7,79.5z"></path><path d="M80.5,105.1l-0.7-28.3c-2,0.5-3.9,1.4-5.6,2.7c-4,2.8-6.9,6.9-8.1,11.4c-0.1,0.2-0.1,0.5-0.2,0.7c0.3,2.1,0.7,4.4,1.1,6.7    c0,0,0,0,0,0c0.5,3.3,1,6.7,1.4,9.8c0,0.1,0,0.2,0,0.3c0.2,1.3,0.4,2.6,0.5,3.7c0.7,5.2,1.2,9,1.2,9c0.9,2.1,2.9,3.6,5.3,3.6    c2.5,0,4.5-1.7,5.3-3.9c0-0.1,0.2-2.7,0-3.1L80.5,105.1z"></path><path d="M99.5,22.2l-0.2-0.1c-1.6-1.1-3.8-0.7-5,0.9c0,0,0,0,0,0c-2.1,2.9-6.2,7.7-11.5,10.6c-1.8,1-3.7,1.7-5.8,2    c-1.4,0-2.9,0.5-4,1.3c-2.5,1.8-5.6,2.9-9,2.9H64h-0.1c-3.3,0-6.5-1.1-9-2.9c-1.2-0.8-2.6-1.3-4-1.3c-2.1-0.3-4-1.1-5.8-2    c-5.3-2.8-9.3-7.7-11.5-10.6c0,0,0,0,0,0c-1.2-1.6-3.3-2-5-0.9l-0.2,0.1c-1.5,1-2.1,3-1.3,4.7c0.6,1.1,1.3,2.5,2.1,3.9    c1,1.7,2.5,3.2,3.9,4.6c3.3,3.4,6.9,6.5,10.5,9.6c1.2,1.1,2.6,2.1,3.8,3.3c2.7,2.7,1,20.7,0.9,23.5c5.2,0.6,11.7,1.1,15.6,0.7    c0,0,0,0,0.1,0c0,0,0,0,0.1,0c3.9,0.4,10.4-0.2,15.6-0.7c-0.1-2.8-1.8-20.7,0.9-23.5c1.1-1.2,2.5-2.2,3.8-3.3    c3.6-3.1,7.2-6.3,10.5-9.6c1.4-1.4,2.9-2.9,3.9-4.6c0.8-1.4,1.6-2.8,2.1-3.9C101.6,25.2,101.1,23.2,99.5,22.2z"></path><path d="M63.9,30.8L63.9,30.8h0.1c7.6,0,13.8-6.2,13.8-13.8c0-7.7-6.2-13.8-13.8-13.8H64h-0.1c-7.6,0-13.8,6.1-13.8,13.8    C50.1,24.5,56.3,30.8,63.9,30.8z"></path></g></g></svg>