<?xml version="1.0" encoding="utf-8"?>
<!-- Generator: Adobe Illustrator 23.0.1, SVG Export Plug-In . SVG Version: 6.00 Build 0)  -->
<svg version="1.1" id="Layer_1" xmlns="http://www.w3.org/2000/svg" xmlns:xlink="http://www.w3.org/1999/xlink" x="0px" y="0px"
	 viewBox="0 0 300 300" style="enable-background:new 0 0 300 300;" xml:space="preserve">
<style type="text/css">
	.st0{fill:#F7A005;}
</style>
<g>
	<g>
		<path class="st0" d="M125.86,186.33c-3.98-2.81-8.44-4.92-12.89-6.33l-1.88,68.44l-0.7,28.12c-0.47,0.94,0,7.03,0,7.27
			c1.87,5.16,6.56,9.14,12.42,9.14c5.62,0,10.31-3.52,12.42-8.44c0,0,4.92-36.8,9.14-63.52c0.23-1.88,0.47-3.52,0.94-5.16
			c-0.23-0.94-0.23-1.64-0.47-2.58C142.03,202.73,135.23,192.89,125.86,186.33z"/>
		<path class="st0" d="M188.67,246.33L187.03,180c-4.69,1.17-9.14,3.28-13.12,6.33c-9.38,6.56-16.17,16.17-18.98,26.72
			c-0.23,0.47-0.23,1.17-0.47,1.64c0.7,4.92,1.64,10.31,2.58,15.7l0,0c1.17,7.73,2.34,15.7,3.28,22.97c0,0.23,0,0.47,0,0.7
			c0.47,3.05,0.94,6.09,1.17,8.67c1.64,12.19,2.81,21.09,2.81,21.09c2.11,4.92,6.8,8.44,12.42,8.44c5.86,0,10.55-3.98,12.42-9.14
			c0-0.23,0.47-6.33,0-7.27L188.67,246.33z"/>
		<path class="st0" d="M233.2,52.03l-0.47-0.23c-3.75-2.58-8.91-1.64-11.72,2.11l0,0c-4.92,6.8-14.53,18.05-26.95,24.84
			c-4.22,2.34-8.67,3.98-13.59,4.69c-3.28,0-6.8,1.17-9.38,3.05c-5.86,4.22-13.12,6.8-21.09,6.8l0,0h-0.23
			c-7.73,0-15.23-2.58-21.09-6.8c-2.81-1.87-6.09-3.05-9.38-3.05c-4.92-0.7-9.38-2.58-13.59-4.69
			c-12.42-6.56-21.8-18.05-26.95-24.84l0,0c-2.81-3.75-7.73-4.69-11.72-2.11l-0.47,0.23c-3.52,2.34-4.92,7.03-3.05,11.02
			c1.41,2.58,3.05,5.86,4.92,9.14c2.34,3.98,5.86,7.5,9.14,10.78c7.73,7.97,16.17,15.23,24.61,22.5c2.81,2.58,6.09,4.92,8.91,7.73
			c6.33,6.33,2.34,48.52,2.11,55.08c12.19,1.41,27.42,2.58,36.56,1.64c0,0,0,0,0.23,0c0,0,0,0,0.23,0
			c9.14,0.94,24.38-0.47,36.56-1.64c-0.23-6.56-4.22-48.52,2.11-55.08c2.58-2.81,5.86-5.16,8.91-7.73
			c8.44-7.27,16.88-14.77,24.61-22.5c3.28-3.28,6.8-6.8,9.14-10.78c1.88-3.28,3.75-6.56,4.92-9.14
			C238.12,59.06,236.95,54.38,233.2,52.03z"/>
		<path class="st0" d="M149.77,72.19L149.77,72.19H150c17.81,0,32.34-14.53,32.34-32.34C182.34,21.8,167.81,7.5,150,7.5l0,0h-0.23
			c-17.81,0-32.34,14.3-32.34,32.34C117.42,57.42,131.95,72.19,149.77,72.19z"/>
	</g>
</g>
</svg>
