<svg height='300px' width='300px'  fill="#000000" xmlns="http://www.w3.org/2000/svg" xmlns:xlink="http://www.w3.org/1999/xlink" version="1.0" x="0px" y="0px" viewBox="0 0 100 100" enable-background="new 0 0 100 100" xml:space="preserve"><path d="M69.7470703,67.6467896V51.1248169c2.6271973-0.397644,4.6427002-2.6586304,4.6427002-5.3968506  c0-3.0183105-2.4468994-5.465332-5.465332-5.465332s-5.465332,2.4470215-5.465332,5.465332  c0,2.7382202,2.0155029,4.9992065,4.6427002,5.3968506v16.4259644c-2.5473633-0.1433716-5.2092285-0.2675781-7.9628906-0.3630371  V41.8056641c4.1854248-0.7999268,7.3502197-4.4747925,7.3502197-8.8931885c0-5.003418-4.0560303-9.0595093-9.0594482-9.0595093  s-9.0595703,4.0560913-9.0595703,9.0595093c0,0.5057983,0.0518799,0.9985962,0.1315918,1.4818726  c-0.6091309-0.234314-1.2683105-0.3682251-1.9599609-0.3682251c-3.0185547,0-5.465332,2.4469604-5.465332,5.4653931  c0,2.7380981,2.015625,4.9991455,4.6425781,5.3967285v22.0994873c-3.3945312,0.0194092-6.8531494,0.0952759-10.3398438,0.2422485  V38.9787598c4.1853027-0.7999878,7.3500977-4.4747314,7.3500977-8.8931274c0-5.003418-4.0561523-9.0596313-9.0595703-9.0596313  s-9.0594482,4.0562134-9.0594482,9.0596313c0,4.3582764,3.0786133,7.9953613,7.1793213,8.8612671v28.4591675  c-8.1269531,0.4576416-16.328125,1.3225708-24.1228027,2.7728882c0,0,43.833252-2.527832,87.333252,0  C96,70.1789551,85.2055664,68.5837402,69.7470703,67.6467896z M56.5493164,67.0819702  c-2.6650391-0.0650635-5.4006348-0.100647-8.1849365-0.0994873V44.8882446  c2.4202881-0.366333,4.3186035-2.3143311,4.6026611-4.7607422c1.0426025,0.7907715,2.2563477,1.3664551,3.5822754,1.6463623  V67.0819702z"></path></svg>