<?xml version="1.0" encoding="utf-8"?>
<!-- Generator: Adobe Illustrator 23.0.1, SVG Export Plug-In . SVG Version: 6.00 Build 0)  -->
<svg version="1.1" id="Layer_1" xmlns="http://www.w3.org/2000/svg" xmlns:xlink="http://www.w3.org/1999/xlink" x="0px" y="0px"
	 viewBox="0 0 300 300" style="enable-background:new 0 0 300 300;" xml:space="preserve">
<style type="text/css">
	.st0{fill:#F7A005;}
</style>
<path class="st0" d="M209.24,202.94v-49.57c7.88-1.19,13.93-7.98,13.93-16.19c0-9.05-7.34-16.4-16.4-16.4s-16.4,7.34-16.4,16.4
	c0,8.21,6.05,15,13.93,16.19v49.28c-7.64-0.43-15.63-0.8-23.89-1.09v-76.15c12.56-2.4,22.05-13.42,22.05-26.68
	c0-15.01-12.17-27.18-27.18-27.18s-27.18,12.17-27.18,27.18c0,1.52,0.16,3,0.39,4.45c-1.83-0.7-3.8-1.1-5.88-1.1
	c-9.06,0-16.4,7.34-16.4,16.4c0,8.21,6.05,15,13.93,16.19v66.3c-10.18,0.06-20.56,0.29-31.02,0.73v-84.75
	c12.56-2.4,22.05-13.42,22.05-26.68c0-15.01-12.17-27.18-27.18-27.18S76.83,75.25,76.83,90.26c0,13.07,9.24,23.99,21.54,26.58v85.38
	c-24.38,1.37-48.98,3.97-72.37,8.32c0,0,131.5-7.58,262,0C288,210.54,255.62,205.75,209.24,202.94z M169.65,201.25
	c-8-0.2-16.2-0.3-24.55-0.3v-66.28c7.26-1.1,12.96-6.94,13.81-14.28c3.13,2.37,6.77,4.1,10.75,4.94V201.25z"/>
</svg>
