<?xml version="1.0" encoding="utf-8"?>
<!-- Generator: Adobe Illustrator 23.0.1, SVG Export Plug-In . SVG Version: 6.00 Build 0)  -->
<svg version="1.1" id="Layer_1" xmlns="http://www.w3.org/2000/svg" xmlns:xlink="http://www.w3.org/1999/xlink" x="0px" y="0px"
	 viewBox="0 0 300 300" style="enable-background:new 0 0 300 300;" xml:space="preserve">
<style type="text/css">
	.st0{fill:#F7A005;}
</style>
<path class="st0" d="M66.92,171.94c-31.85,0-57.75,25.91-57.75,57.75s25.91,57.75,57.75,57.75s57.75-25.91,57.75-57.75
	S98.77,171.94,66.92,171.94z M66.92,275.07c-25.02,0-45.38-20.36-45.38-45.38s20.36-45.38,45.38-45.38s45.38,20.36,45.38,45.38
	S91.94,275.07,66.92,275.07z"/>
<path class="st0" d="M236.07,171.94c-31.85,0-57.75,25.91-57.75,57.75s25.91,57.75,57.75,57.75s57.75-25.91,57.75-57.75
	S267.92,171.94,236.07,171.94z M236.07,275.07c-25.02,0-45.38-20.36-45.38-45.38s20.36-45.38,45.38-45.38s45.38,20.36,45.38,45.38
	S261.09,275.07,236.07,275.07z"/>
<path class="st0" d="M174.15,137.83c2.36,2.13,5.33,3.18,8.28,3.18c3.39,0,6.76-1.38,9.2-4.1c4.57-5.08,4.16-12.9-0.92-17.48
	l-59.82-53.85c-1.06-1.2-2.22-2.33-3.58-3.3c-9.29-6.57-22.17-4.36-28.75,4.94l-42.28,59.82c-6.58,9.3-4.36,22.17,4.94,28.75
	c3.61,2.56,7.77,3.78,11.89,3.78c0.59,0,1.18-0.05,1.77-0.1c0.34,0.02,0.66,0.1,1,0.1c31.68,0,59.47,30.2,59.47,64.63
	c0,7.97,6.46,14.44,14.44,14.44s14.44-6.46,14.44-14.44c0-41.38-26.97-77.5-62.92-89.38l27.03-38.24L174.15,137.83z"/>
<circle class="st0" cx="139.11" cy="36.84" r="23.72"/>
<path class="st0" d="M203.06,113.16c12.3,0,22.69,16.53,22.69,36.1c0,3.42,2.77,6.19,6.19,6.19s6.19-2.77,6.19-6.19
	c0-27.18-15.4-48.47-35.07-48.47c-3.42,0-6.19,2.77-6.19,6.19S199.64,113.16,203.06,113.16z"/>
</svg>
