<svg height='300px' width='300px'  fill="#000000" xmlns="http://www.w3.org/2000/svg" xmlns:xlink="http://www.w3.org/1999/xlink" version="1.1" x="0px" y="0px" viewBox="0 -17.137 72.722 71.862" enable-background="new 0 -17.137 72.722 71.862" xml:space="preserve"><path d="M16.222,24.113c-7.72,0-14,6.28-14,14s6.28,14,14,14s14-6.28,14-14S23.942,24.113,16.222,24.113z M16.222,49.113  c-6.065,0-11-4.935-11-11s4.935-11,11-11s11,4.935,11,11S22.287,49.113,16.222,49.113z"></path><path d="M57.226,24.113c-7.72,0-14,6.28-14,14s6.28,14,14,14s14-6.28,14-14S64.946,24.113,57.226,24.113z M57.226,49.113  c-6.065,0-11-4.935-11-11s4.935-11,11-11s11,4.935,11,11S63.291,49.113,57.226,49.113z"></path><path d="M42.215,15.843c0.573,0.516,1.291,0.77,2.006,0.77c0.821,0,1.639-0.335,2.23-0.993c1.108-1.231,1.009-3.128-0.223-4.237  L31.727-1.67c-0.256-0.292-0.538-0.566-0.869-0.801c-2.253-1.593-5.374-1.058-6.969,1.197l-10.25,14.5  c-1.594,2.255-1.058,5.375,1.197,6.969c0.876,0.62,1.884,0.917,2.882,0.917c0.143,0,0.285-0.013,0.428-0.025  c0.082,0.006,0.16,0.024,0.243,0.024c7.68,0,14.416,7.321,14.416,15.667c0,1.933,1.567,3.5,3.5,3.5s3.5-1.567,3.5-3.5  c0-10.03-6.537-18.787-15.253-21.667l6.553-9.27L42.215,15.843z"></path><circle cx="33.722" cy="-8.637" r="5.75"></circle><path d="M49.222,9.863c2.981,0,5.5,4.007,5.5,8.75c0,0.829,0.672,1.5,1.5,1.5s1.5-0.671,1.5-1.5c0-6.589-3.733-11.75-8.5-11.75  c-0.828,0-1.5,0.671-1.5,1.5S48.394,9.863,49.222,9.863z"></path></svg>