<svg height='300px' width='300px'  fill="#000000" xmlns="http://www.w3.org/2000/svg" xmlns:xlink="http://www.w3.org/1999/xlink" version="1.1" x="0px" y="0px" viewBox="0 0 50 50" enable-background="new 0 0 50 50" xml:space="preserve"><g><path d="M16.7,1L7.9,49h33.9L33.2,1H16.7z M25.7,46.5H24v-4.4h1.7V46.5z M25.7,38.8H24v-4.4h1.7V38.8z M25.7,31.1H24v-4.4h1.7V31.1   z M25.7,23.3H24v-4.4h1.7V23.3z M25.7,15.6H24v-4.4h1.7V15.6z M25.7,7.9H24V3.5h1.7V7.9z"></path><polygon points="34.8,1 45,49 48.2,49 36.4,1  "></polygon><polygon points="13.6,1 1.8,49 5,49 15.2,1  "></polygon></g></svg>