<?xml version="1.0" encoding="utf-8"?>
<!-- Generator: Adobe Illustrator 23.0.1, SVG Export Plug-In . SVG Version: 6.00 Build 0)  -->
<svg version="1.1" id="Layer_1" xmlns:sketch="http://www.bohemiancoding.com/sketch/ns"
	 xmlns="http://www.w3.org/2000/svg" xmlns:xlink="http://www.w3.org/1999/xlink" x="0px" y="0px" viewBox="0 0 300 300"
	 style="enable-background:new 0 0 300 300;" xml:space="preserve">
<style type="text/css">
	.st0{fill-rule:evenodd;clip-rule:evenodd;fill:#F7A005;}
</style>
<title>search</title>
<desc>Created with Sketch.</desc>
<g sketch:type="MSPage">
	<path sketch:type="MSShapeGroup" class="st0" d="M208.1,173.01l81.38,81.38c10.3,10.3,10.28,27.01,0.01,37.28
		c-10.29,10.29-26.96,10.3-37.28-0.01l-81.38-81.38c-43.12,26.36-100.22,20.89-137.54-16.43c-43.73-43.73-43.73-114.64,0-158.37
		s114.64-43.73,158.38,0C228.99,72.79,234.47,129.89,208.1,173.01L208.1,173.01z M51.93,175.21c-33.44-33.44-33.44-87.66,0-121.1
		s87.67-33.44,121.11,0s33.44,87.66,0,121.1S85.37,208.66,51.93,175.21L51.93,175.21z"/>
</g>
</svg>
