<?xml version="1.0" encoding="utf-8"?>
<!-- Generator: Adobe Illustrator 23.0.1, SVG Export Plug-In . SVG Version: 6.00 Build 0)  -->
<svg version="1.1" id="Layer_1" xmlns="http://www.w3.org/2000/svg" xmlns:xlink="http://www.w3.org/1999/xlink" x="0px" y="0px"
	 viewBox="0 0 300 300" style="enable-background:new 0 0 300 300;" xml:space="preserve">
<style type="text/css">
	.st0{fill:#F7A005;}
</style>
<path class="st0" d="M281.1,134.4c-6.9-25.2-30.6-43.5-58.2-42.3c-23.1,0.9-42.6,15.6-51.3,36c-6.3-3.9-13.8-6.3-21.6-6.3
	c-7.8,0-15.3,2.4-21.6,6.3c-8.7-21.3-29.4-36-53.7-36c-26.7,0-48.9,18-55.8,42.3c-0.9,3.9-4.5,6.6-8.4,6.6H5.1v18h5.4
	c3.9,0,7.5,2.7,8.7,6.3c6.9,25.2,30.6,43.5,58.2,42.3c28.8-1.2,52.5-24,55.2-52.5c2.7-6.9,9.6-12,17.7-12c7.8,0,14.7,4.8,17.4,11.7
	c2.7,29.7,27.6,52.8,57.6,52.8c26.7,0,48.9-18,55.8-42.3c1.2-3.9,4.5-6.6,8.7-6.6h5.4V141h-5.4C285.6,141,282,138.3,281.1,134.4z
	 M74.7,190.5c-22.2,0-40.5-18-40.5-40.2s18-40.5,40.5-40.5c22.2,0,40.2,18,40.2,40.5C115.2,172.2,96.9,190.5,74.7,190.5z
	 M225.3,190.5c-22.2,0-40.5-18-40.5-40.5c0-22.2,18-40.2,40.5-40.2c22.2,0,40.5,18,40.5,40.2C265.5,172.2,247.5,190.5,225.3,190.5z"
	/>
</svg>
