<svg height='300px' width='300px'  fill="#000000" xmlns="http://www.w3.org/2000/svg" xmlns:xlink="http://www.w3.org/1999/xlink" version="1.1" x="0px" y="0px" viewBox="0 0 100 100" enable-background="new 0 0 100 100" xml:space="preserve"><path d="M93.7,44.8c-2.3-8.4-10.2-14.5-19.4-14.1c-7.7,0.3-14.2,5.2-17.1,12c-2.1-1.3-4.6-2.1-7.2-2.1c-2.6,0-5.1,0.8-7.2,2.1  c-2.9-7.1-9.8-12-17.9-12c-8.9,0-16.3,6-18.6,14.1C6,46.1,4.8,47,3.5,47H1.7V53h1.8c1.3,0,2.5,0.9,2.9,2.1  c2.3,8.4,10.2,14.5,19.4,14.1c9.6-0.4,17.5-8,18.4-17.5c0.9-2.3,3.2-4,5.9-4c2.6,0,4.9,1.6,5.8,3.9c0.9,9.9,9.2,17.6,19.2,17.6  c8.9,0,16.3-6,18.6-14.1c0.4-1.3,1.5-2.2,2.9-2.2h1.8V47h-1.8C95.2,47,94,46.1,93.7,44.8z M24.9,63.5c-7.4,0-13.5-6-13.5-13.4  c0-7.4,6-13.5,13.5-13.5c7.4,0,13.4,6,13.4,13.5C38.4,57.4,32.3,63.5,24.9,63.5z M75.1,63.5c-7.4,0-13.5-6-13.5-13.5  c0-7.4,6-13.4,13.5-13.4c7.4,0,13.5,6,13.5,13.4C88.5,57.4,82.5,63.5,75.1,63.5z"></path></svg>