<?xml version="1.0" encoding="utf-8"?>
<!-- Generator: Adobe Illustrator 23.0.1, SVG Export Plug-In . SVG Version: 6.00 Build 0)  -->
<svg version="1.1" id="Layer_1" xmlns="http://www.w3.org/2000/svg" xmlns:xlink="http://www.w3.org/1999/xlink" x="0px" y="0px"
	 viewBox="0 0 300 300" style="enable-background:new 0 0 300 300;" xml:space="preserve">
<style type="text/css">
	.st0{fill:#F7A005;}
</style>
<g>
	<path class="st0" d="M87.3,81.27c12.24,3.76,25.17-3.12,28.93-15.36c3.66-12.2-3.18-25.08-15.42-28.81
		c-12.16-3.77-25.09,3.07-28.85,15.31C68.22,64.65,75.14,77.53,87.3,81.27z"/>
	<path class="st0" d="M199.75,216.71l-4.12-32.11c-0.83-4.06-3.37-7.65-7.14-9.78l-24.48-7.35l40.52-24.55l49.54,21.94
		c0.32,0.15,0.61,0.29,0.9,0.44c7.49,2.6,15.71-1.3,18.32-8.8c2.46-7.07-0.87-14.7-7.5-17.82l-56.45-25.15
		c-0.28-0.08-0.46-0.22-0.76-0.29c-4.06-1.41-8.36-0.91-11.8,0.98l-37.3,22.77l-8.76-54.09l53.55-31.32
		c2.54-1.41,4.53-3.69,5.36-6.59c1.71-5.86-1.62-12.02-7.49-13.8c-3.11-0.9-6.37-0.4-8.98,1.24l-76.32,44.82
		c-2.68,1.41-5,3.4-6.99,5.72l-32.19,43.2l-44.31-5.29c-2.82,0.98-5.25,3.11-6.51,6.01c-2.47,5.65,0.14,12.17,5.72,14.56
		c2.35,1.09,4.89,1.23,7.24,0.58l45.11,5.1c1.64-0.65,3.11-1.63,4.31-2.97l18.32-23l8.76,49.64c1.63,7,6.31,13.15,12.93,16.48
		l39.32,11.73l2.09,16.31c-6.74-0.19-13.62-0.29-20.63-0.29c-79.22,0-143.43,12.13-143.43,27.11c0,14.97,64.21,27.11,143.43,27.11
		c79.2,0,143.41-12.14,143.41-27.11C293.42,230.47,254.44,220.53,199.75,216.71z"/>
</g>
</svg>
