<svg height='300px' width='300px'  fill="#000000" xmlns="http://www.w3.org/2000/svg" xmlns:xlink="http://www.w3.org/1999/xlink" version="1.1" x="0px" y="0px" viewBox="0 0 52 52" enable-background="new 0 0 52 52" xml:space="preserve"><g><path d="M21.7477074,19.0281811c2.3484497-0.1669922,4.7849731,1.7736816,6.1455078,3.079834l1.8450928-4.0146484   l-7.8822632-6.0356445c-0.3800049-0.289917-0.9099731-0.2700195-1.2699585,0.0400391   c-1.4836426,1.2971191-3.5600586,4.2705078-2.8692017,7.6069336   C19.1938133,19.1603832,21.1497459,19.0718822,21.7477074,19.0281811z"></path><path d="M19.4713402,37.5418549l-3.9052744-1.6289063L3.2457533,35.9080658c-0.4263916,0-0.8410034-0.09375-1.2214966-0.263916   c0.1210938,0.9975586,0.52771,1.9462891,1.2017822,2.7236328c0.9700317,1.1300049,2.3900146,1.7800293,3.8800049,1.7800293   h36.3699951c1.8129883,0,3.4968262-0.8029785,4.6486206-2.1303711H21.8258324   C21.0260277,38.0174408,20.2115746,37.8533783,19.4713402,37.5418549z"></path><path d="M49.3660545,30.4977856c-0.75-1.5400391-2.0499878-2.6700439-3.6799927-3.1800537l-5.5499878-1.7600098   c-0.7399902-0.2399902-1.4400024-0.5999756-2.0599976-1.0799561l-0.1831055-0.1402588l-2.4470215,5.1662598   c-0.1708984,0.3613281-0.5292969,0.5722656-0.9042969,0.5722656c-0.1435547,0-0.2890625-0.0302734-0.4267578-0.0966797   c-0.4990234-0.2363281-0.7128906-0.8320313-0.4755859-1.3310547l2.6304932-5.5537109l-1.604126-1.2282715l-2.9824219,6.5153809   c-0.1689453,0.3671875-0.53125,0.5830078-0.9101563,0.5830078c-0.1396484,0-0.28125-0.0292969-0.4160156-0.0908203   c-0.5019531-0.2304688-0.7226563-0.8242188-0.4921875-1.3261719l3.1716919-6.928833l-1.6697388-1.2784424l-3.5068359,7.630127   c-0.1689453,0.3671875-0.53125,0.5830078-0.9101563,0.5830078c-0.1396484,0-0.28125-0.0292969-0.4160156-0.0908203   c-0.5019531-0.2304688-0.7226563-0.8242188-0.4921875-1.3261719l0.9615479-2.0921631   c-1.1345825-1.1843262-3.3883667-3.1519775-5.1109619-3.0211182c-0.3214722,0.0235596-2.5025024-0.0371094-3.5518188,0.447998   c0.0097046,0.0187988,0.0157471,0.0375977,0.0256348,0.0563965c-1.6799927,2.5700684-4.1699839,2.7800293-4.9199839,2.7800293   l-0.2000122-0.0100098c-0.8999634-0.0100098-1.5800171-0.3898926-2.0499878-1.1499023   c-0.789978-1.2600098-2.1099854-2.0100098-3.5300293-2.0100098H7.5060682c-2.0200195,0-3.7600098,1.5100098-4.0499878,3.5   l-1.2000122,8.119997c-0.039978,0.289917,0.039978,0.5799561,0.2299805,0.7999268s0.4700317,0.3500977,0.7600098,0.3500977   h12.289978c0.2700195,0,0.5500498,0.0499268,0.8000498,0.1599121l3.9099731,1.630127   c0.5,0.2099609,1.039978,0.3199463,1.5800171,0.3199463h26.8099976c0.4199829,0,0.789978-0.2600098,0.9400024-0.6400146   C50.1760521,33.7977142,50.096096,32.017807,49.3660545,30.4977856z"></path></g></svg>