<?xml version="1.0" encoding="utf-8"?>
<!-- Generator: Adobe Illustrator 23.0.1, SVG Export Plug-In . SVG Version: 6.00 Build 0)  -->
<svg version="1.1"
	 id="Layer_1" xmlns:cc="http://creativecommons.org/ns#" xmlns:dc="http://purl.org/dc/elements/1.1/" xmlns:inkscape="http://www.inkscape.org/namespaces/inkscape" xmlns:rdf="http://www.w3.org/1999/02/22-rdf-syntax-ns#" xmlns:sodipodi="http://sodipodi.sourceforge.net/DTD/sodipodi-0.dtd" xmlns:svg="http://www.w3.org/2000/svg"
	 xmlns="http://www.w3.org/2000/svg" xmlns:xlink="http://www.w3.org/1999/xlink" x="0px" y="0px" viewBox="0 0 300 300"
	 style="enable-background:new 0 0 300 300;" xml:space="preserve">
<style type="text/css">
	.st0{fill:#F7A005;}
</style>
<g transform="translate(0,-952.36218)">
	<path class="st0" d="M150,958.36c-3.31,0-6,2.69-6,6v24c0,3.31,2.69,6,6,6s6-2.69,6-6v-24C156,961.05,153.31,958.36,150,958.36z
		 M65.16,993.52c-1.54,0-3.05,0.61-4.22,1.78c-2.34,2.34-2.34,6.09,0,8.44l16.97,16.97c2.34,2.34,6.09,2.34,8.44,0
		c2.34-2.34,2.34-6.09,0-8.44L69.38,995.3C68.2,994.13,66.69,993.52,65.16,993.52z M234.84,993.52c-1.54,0-3.05,0.61-4.22,1.78
		l-16.97,16.97c-2.34,2.34-2.34,6.09,0,8.44c2.34,2.34,6.09,2.34,8.44,0l16.97-16.97c2.34-2.34,2.34-6.09,0-8.44
		C237.89,994.13,236.38,993.52,234.84,993.52L234.84,993.52z M150,1012.36c-36.59,0-72,28.38-72,68.53c0,52.09,39,63,39,99.47h66
		c0-36.47,39-47.38,39-99.47C222,1040.75,186.59,1012.36,150,1012.36L150,1012.36z M131.53,1030.55c0.03,0,0.06,0,0.09,0
		c0.16-0.01,0.31-0.01,0.47,0c3.31,0.02,5.99,2.71,5.97,6.03c-0.01,2.5-1.57,4.73-3.91,5.6c-14.62,5.51-25.61,18.46-28.41,34.22
		c-0.6,3.26-3.72,5.42-6.98,4.83c-3.26-0.6-5.42-3.72-4.83-6.98c3.55-19.95,17.36-36.23,35.91-43.22
		C130.38,1030.78,130.95,1030.62,131.53,1030.55L131.53,1030.55z M30,1078.36c-3.31,0-6,2.69-6,6s2.69,6,6,6h24c3.31,0,6-2.69,6-6
		s-2.69-6-6-6H30z M246,1078.36c-3.31,0-6,2.69-6,6s2.69,6,6,6h24c3.31,0,6-2.69,6-6s-2.69-6-6-6H246z M117,1192.36v12h66v-12H117z
		 M117,1216.36c0,6.89,5.67,12,12,12h42c6.33,0,12-5.11,12-12H117z M138,1234.36c0,6.65,5.35,12,12,12s12-5.35,12-12H138z"/>
</g>
</svg>
