<svg height='300px' width='300px'  fill="#000000" xmlns:dc="http://purl.org/dc/elements/1.1/" xmlns:cc="http://creativecommons.org/ns#" xmlns:rdf="http://www.w3.org/1999/02/22-rdf-syntax-ns#" xmlns:svg="http://www.w3.org/2000/svg" xmlns="http://www.w3.org/2000/svg" xmlns:sodipodi="http://sodipodi.sourceforge.net/DTD/sodipodi-0.dtd" xmlns:inkscape="http://www.inkscape.org/namespaces/inkscape" version="1.1" x="0px" y="0px" viewBox="0 0 100 100"><g transform="translate(0,-952.36218)"><path style="color:#000000;enable-background:accumulate;" d="m 50,954.36219 c -1.1046,0 -2,0.8954 -2,2 l 0,8 c 0,1.1046 0.8954,2 2,2 1.1046,0 2,-0.8954 2,-2 l 0,-8 c 0,-1.1046 -0.8954,-2 -2,-2 z m -28.2812,11.71875 c -0.5119,0 -1.0157,0.20315 -1.4063,0.59375 -0.781,0.781 -0.781,2.0314 0,2.8125 l 5.6563,5.65625 c 0.7808,0.781 2.0314,0.781 2.8124,0 0.7811,-0.781 0.7811,-2.0314 0,-2.8125 l -5.6562,-5.65625 c -0.3905,-0.3906 -0.8945,-0.59375 -1.4062,-0.59375 z m 56.5624,0 c -0.5117,0 -1.0156,0.20315 -1.4062,0.59375 l -5.6562,5.65625 c -0.7811,0.7811 -0.7811,2.0315 0,2.8125 0.781,0.781 2.0315,0.781 2.8124,0 l 5.6563,-5.65625 c 0.781,-0.7811 0.781,-2.0315 0,-2.8125 -0.3906,-0.3906 -0.8943,-0.59375 -1.4063,-0.59375 z M 50,972.36219 c -12.1952,0 -24,9.46149 -24,22.84379 0,17.36372 13,20.99992 13,33.15622 l 22,0 c 0,-12.1563 13,-15.7925 13,-33.15623 0,-13.3823 -11.8048,-22.84379 -24,-22.84379 z m -6.1562,6.0625 a 2.0002,2.0002 0 0 1 0.031,0 2.0002,2.0002 0 0 1 0.1562,0 2.0002,2.0002 0 0 1 0.6876,3.87499 c -4.8732,1.8375 -8.5353,6.1526 -9.4688,11.4063 a 2.0012858,2.0012858 0 0 1 -3.9375,-0.7188 c 1.1819,-6.6513 5.7877,-12.07533 11.9687,-14.40624 a 2.0002,2.0002 0 0 1 0.5626,-0.15625 z M 9.9999998,994.36218 c -1.1046,0 -2,0.8954 -2,2 0,1.1046 0.8954,2 2,2 l 8.0000002,0 c 1.1046,0 2,-0.8954 2,-2 0,-1.1046 -0.8954,-2 -2,-2 l -8.0000002,0 z m 72.0000002,0 c -1.1046,0 -2,0.8954 -2,2 0,1.1046 0.8954,2 2,2 l 8,0 c 1.1046,0 2,-0.8954 2,-2 0,-1.1046 -0.8954,-2 -2,-2 l -8,0 z m -43,38.00002 0,4 22,0 0,-4 -22,0 z m 0,8 c 0,2.2981 1.8895,4 4,4 l 14,0 c 2.1105,0 4,-1.7019 4,-4 l -22,0 z m 7,6 c 0,2.216 1.784,4 4,4 2.216,0 4,-1.784 4,-4 l -8,0 z" fill="#000000" stroke="none" marker="none" visibility="visible" display="inline" overflow="visible"></path></g></svg>