<?xml version="1.0" encoding="utf-8"?>
<!-- Generator: Adobe Illustrator 23.0.1, SVG Export Plug-In . SVG Version: 6.00 Build 0)  -->
<svg version="1.1" id="Layer_1" xmlns="http://www.w3.org/2000/svg" xmlns:xlink="http://www.w3.org/1999/xlink" x="0px" y="0px"
	 viewBox="0 0 300 300" style="enable-background:new 0 0 300 300;" xml:space="preserve">
<style type="text/css">
	.st0{fill:#F7A005;}
</style>
<circle class="st0" cx="114.6" cy="48.6" r="24"/>
<polygon class="st0" points="260.85,202.35 239.01,214.17 210.78,162.54 210.54,162.54 197.46,162.54 144.09,162.54 139.5,132.75 
	187.11,132.75 187.11,108.87 135.81,108.87 131.22,79.08 107.49,82.74 123.81,186.42 197.46,186.42 200.94,186.42 230.49,244.35 
	271.71,222.6 "/>
<g>
	<path class="st0" d="M216.36,196.86c0-0.09,0.03-0.21,0.03-0.3h-0.18L216.36,196.86z"/>
	<path class="st0" d="M193.44,197.49h-1.11c-3.78,34.77-33.24,61.83-69,61.83c-38.34,0-69.42-31.08-69.42-69.42
		c0-30.75,20.01-56.85,47.73-65.97l-4.47-23.46c-0.57,0.18-4.11,1.17-4.68,1.35C56.07,114.57,30,149.19,30,189.9
		c0,51.54,41.79,93.3,93.3,93.3c38.16,0,70.95-22.89,85.41-55.71L193.44,197.49z"/>
</g>
</svg>
