<?xml version="1.0" encoding="utf-8"?>
<!-- Generator: Adobe Illustrator 23.0.1, SVG Export Plug-In . SVG Version: 6.00 Build 0)  -->
<svg version="1.1" id="Layer_1" xmlns="http://www.w3.org/2000/svg" xmlns:xlink="http://www.w3.org/1999/xlink" x="0px" y="0px"
	 viewBox="0 0 300 300" style="enable-background:new 0 0 300 300;" xml:space="preserve">
<style type="text/css">
	.st0{fill:#F7A005;}
</style>
<g>
	<path class="st0" d="M100.2,6L47.4,294h203.4L199.2,6H100.2z M154.2,279H144v-26.4h10.2V279z M154.2,232.8H144v-26.4h10.2V232.8z
		 M154.2,186.6H144v-26.4h10.2V186.6z M154.2,139.8H144v-26.4h10.2V139.8z M154.2,93.6H144V67.2h10.2V93.6z M154.2,47.4H144V21h10.2
		V47.4z"/>
	<polygon class="st0" points="208.8,6 270,294 289.2,294 218.4,6 	"/>
	<polygon class="st0" points="81.6,6 10.8,294 30,294 91.2,6 	"/>
</g>
</svg>
