<?xml version="1.0" encoding="utf-8"?>
<!-- Generator: Adobe Illustrator 23.0.1, SVG Export Plug-In . SVG Version: 6.00 Build 0)  -->
<svg version="1.1" id="Layer_1" xmlns="http://www.w3.org/2000/svg" xmlns:xlink="http://www.w3.org/1999/xlink" x="0px" y="0px"
	 viewBox="0 0 300 300" style="enable-background:new 0 0 300 300;" xml:space="preserve">
<style type="text/css">
	.st0{fill:#F7A005;}
</style>
<g>
	<path class="st0" d="M125.47,109.78c13.55-0.96,27.61,10.23,35.45,17.77l10.64-23.16l-45.47-34.82c-2.19-1.67-5.25-1.56-7.33,0.23
		c-8.56,7.48-20.54,24.64-16.55,43.89C110.73,110.54,122.02,110.03,125.47,109.78z"/>
	<path class="st0" d="M112.33,216.59l-22.53-9.4l-71.08-0.03c-2.46,0-4.85-0.54-7.05-1.52c0.7,5.76,3.04,11.23,6.93,15.71
		c5.6,6.52,13.79,10.27,22.38,10.27h209.83c10.46,0,20.17-4.63,26.82-12.29H125.92C121.3,219.33,116.61,218.38,112.33,216.59z"/>
	<path class="st0" d="M284.8,175.95c-4.33-8.88-11.83-15.4-21.23-18.35l-32.02-10.15c-4.27-1.38-8.31-3.46-11.88-6.23l-1.06-0.81
		l-14.12,29.81c-0.99,2.08-3.05,3.3-5.22,3.3c-0.83,0-1.67-0.17-2.46-0.56c-2.88-1.36-4.11-4.8-2.74-7.68l15.18-32.04l-9.25-7.09
		l-17.21,37.59c-0.97,2.12-3.06,3.36-5.25,3.36c-0.81,0-1.62-0.17-2.4-0.52c-2.9-1.33-4.17-4.76-2.84-7.65l18.3-39.97l-9.63-7.38
		l-20.23,44.02c-0.97,2.12-3.06,3.36-5.25,3.36c-0.81,0-1.62-0.17-2.4-0.52c-2.9-1.33-4.17-4.76-2.84-7.65l5.55-12.07
		c-6.55-6.83-19.55-18.18-29.49-17.43c-1.85,0.14-14.44-0.21-20.49,2.58c0.06,0.11,0.09,0.22,0.15,0.33
		c-9.69,14.83-24.06,16.04-28.38,16.04l-1.15-0.06c-5.19-0.06-9.12-2.25-11.83-6.63c-4.56-7.27-12.17-11.6-20.37-11.6H43.3
		c-11.65,0-21.69,8.71-23.37,20.19l-6.92,46.85c-0.23,1.67,0.23,3.35,1.33,4.61c1.1,1.27,2.71,2.02,4.38,2.02h70.9
		c1.56,0,3.17,0.29,4.62,0.92l22.56,9.4c2.88,1.21,6,1.85,9.12,1.85h154.67c2.42,0,4.56-1.5,5.42-3.69
		C289.48,194.99,289.02,184.72,284.8,175.95z"/>
</g>
</svg>
