<?xml version="1.0" encoding="utf-8"?>
<!-- Generator: Adobe Illustrator 23.0.1, SVG Export Plug-In . SVG Version: 6.00 Build 0)  -->
<svg version="1.1" id="Layer_1" xmlns="http://www.w3.org/2000/svg" xmlns:xlink="http://www.w3.org/1999/xlink" x="0px" y="0px"
	 viewBox="0 0 300 300" style="enable-background:new 0 0 300 300;" xml:space="preserve">
<style type="text/css">
	.st0{fill:#F7A005;}
</style>
<path class="st0" d="M261.3,276.3H38.7c-6.6,0-12-5.4-12-12l0,0c0-6.6,5.4-12,12-12h222.6c6.6,0,12,5.4,12,12l0,0
	C273.3,270.9,267.9,276.3,261.3,276.3z"/>
<path class="st0" d="M267,82.5H162.3c-6.6,0-12-5.4-12-12l0,0c0-6.6,5.4-12,12-12H267c6.6,0,12,5.4,12,12l0,0
	C279,77.1,273.6,82.5,267,82.5z"/>
<path class="st0" d="M267,61.2H162.3c-6.6,0-12-5.4-12-12l0,0c0-6.6,5.4-12,12-12H267c6.6,0,12,5.4,12,12l0,0
	C279,56.1,273.6,61.2,267,61.2z"/>
<path class="st0" d="M267,42.6H162.3c-6.6,0-12-5.4-12-12l0,0c0-6.6,5.4-12,12-12H267c6.6,0,12,5.4,12,12l0,0
	C279,37.2,273.6,42.6,267,42.6z"/>
<path class="st0" d="M156.6,82.5c-3.6,60.6-34.8,109.2-78,122.1c-9.6,3-27,6.3-50.4,0C17.7,210.6,11.7,222,12,234
	c0.6,18.3,16.8,27.3,17.4,27.6c79.2,0,158.4,0,237.3,0c0,0,10.2-2.7,10.2-13.2s0-165.9,0-165.9"/>
<path class="st0" d="M199.8,140.7c-3.3,0.9-15.9,3.6-30.3,0c-14.1-3.6-21.3-10.8-23.1-12.9"/>
<path class="st0" d="M205.8,164.1c-4.2,0.9-19.5,4.5-37.5,0c-17.4-4.2-26.1-13.2-28.5-15.9"/>
<path class="st0" d="M206.4,189.6c-5.1,1.2-24.3,5.4-46.5,0c-21.6-5.4-32.4-16.5-35.1-19.5"/>
<circle class="st0" cx="203.4" cy="189.6" r="4.5"/>
<circle class="st0" cx="202.8" cy="164.4" r="4.5"/>
<circle class="st0" cx="201" cy="140.1" r="4.5"/>
<rect x="33.6" y="276.3" class="st0" width="8.7" height="5.1"/>
<rect x="50.1" y="276.3" class="st0" width="8.7" height="5.1"/>
<rect x="65.7" y="276.3" class="st0" width="8.7" height="5.1"/>
<rect x="81.9" y="276.3" class="st0" width="8.7" height="5.1"/>
<rect x="98.4" y="276.3" class="st0" width="8.7" height="5.1"/>
<rect x="114.3" y="276.3" class="st0" width="8.7" height="5.1"/>
<rect x="130.2" y="276.3" class="st0" width="8.7" height="5.1"/>
<rect x="146.7" y="276.3" class="st0" width="8.7" height="5.1"/>
<rect x="162.3" y="276.3" class="st0" width="8.7" height="5.1"/>
<rect x="178.5" y="276.3" class="st0" width="8.7" height="5.1"/>
<rect x="195" y="276.3" class="st0" width="8.7" height="5.1"/>
<rect x="210.9" y="276.3" class="st0" width="8.7" height="5.1"/>
<rect x="227.1" y="276.3" class="st0" width="8.7" height="5.1"/>
<rect x="243.6" y="276.3" class="st0" width="8.7" height="5.1"/>
<rect x="259.5" y="276.3" class="st0" width="8.7" height="5.1"/>
</svg>
