<svg height='300px' width='300px'  fill="#000000" xmlns="http://www.w3.org/2000/svg" xmlns:xlink="http://www.w3.org/1999/xlink" version="1.1" x="0px" y="0px" viewBox="0 0 100 100" style="enable-background:new 0 0 100 100;" xml:space="preserve"><style type="text/css">
	.st0{stroke:#000000;stroke-miterlimit:10;}
</style><path class="st0" d="M87.1,92.1H12.9c-2.2,0-4-1.8-4-4v0c0-2.2,1.8-4,4-4h74.2c2.2,0,4,1.8,4,4v0C91.1,90.3,89.3,92.1,87.1,92.1z"></path><path class="st0" d="M89,27.5H54.1c-2.2,0-4-1.8-4-4v0c0-2.2,1.8-4,4-4H89c2.2,0,4,1.8,4,4v0C93,25.7,91.2,27.5,89,27.5z"></path><path class="st0" d="M89,20.4H54.1c-2.2,0-4-1.8-4-4v0c0-2.2,1.8-4,4-4H89c2.2,0,4,1.8,4,4v0C93,18.7,91.2,20.4,89,20.4z"></path><path class="st0" d="M89,14.2H54.1c-2.2,0-4-1.8-4-4v0c0-2.2,1.8-4,4-4H89c2.2,0,4,1.8,4,4v0C93,12.4,91.2,14.2,89,14.2z"></path><path class="st0" d="M52.2,27.5c-1.2,20.2-11.6,36.4-26,40.7c-3.2,1-9,2.1-16.8,0C5.9,70.2,3.9,74,4,78c0.2,6.1,5.6,9.1,5.8,9.2  c26.4,0,52.8,0,79.1,0c0,0,3.4-0.9,3.4-4.4s0-55.3,0-55.3"></path><path class="st0" d="M66.6,46.9c-1.1,0.3-5.3,1.2-10.1,0c-4.7-1.2-7.1-3.6-7.7-4.3"></path><path class="st0" d="M68.6,54.7c-1.4,0.3-6.5,1.5-12.5,0c-5.8-1.4-8.7-4.4-9.5-5.3"></path><path class="st0" d="M68.8,63.2c-1.7,0.4-8.1,1.8-15.5,0c-7.2-1.8-10.8-5.5-11.7-6.5"></path><circle class="st0" cx="67.8" cy="63.2" r="1.5"></circle><circle class="st0" cx="67.6" cy="54.8" r="1.5"></circle><circle class="st0" cx="67" cy="46.7" r="1.5"></circle><rect x="11.2" y="92.1" width="2.9" height="1.7"></rect><rect x="16.7" y="92.1" width="2.9" height="1.7"></rect><rect x="21.9" y="92.1" width="2.9" height="1.7"></rect><rect x="27.3" y="92.1" width="2.9" height="1.7"></rect><rect x="32.8" y="92.1" width="2.9" height="1.7"></rect><rect x="38.1" y="92.1" width="2.9" height="1.7"></rect><rect x="43.4" y="92.1" width="2.9" height="1.7"></rect><rect x="48.9" y="92.1" width="2.9" height="1.7"></rect><rect x="54.1" y="92.1" width="2.9" height="1.7"></rect><rect x="59.5" y="92.1" width="2.9" height="1.7"></rect><rect x="65" y="92.1" width="2.9" height="1.7"></rect><rect x="70.3" y="92.1" width="2.9" height="1.7"></rect><rect x="75.7" y="92.1" width="2.9" height="1.7"></rect><rect x="81.2" y="92.1" width="2.9" height="1.7"></rect><rect x="86.5" y="92.1" width="2.9" height="1.7"></rect></svg>