<svg height='300px' width='300px'  fill="#000000" xmlns="http://www.w3.org/2000/svg" xmlns:xlink="http://www.w3.org/1999/xlink" version="1.1" x="0px" y="0px" viewBox="0 0 100 100" enable-background="new 0 0 100 100" xml:space="preserve"><g><path d="M17.688,80.561c0,0-3.882-19.821,17.55-16.405c0,0,9.008,1.864,8.076-6.367c-0.927-8.186-6.105-24.136-6.775-43.371   c2.792,2.198,13.586,3.028,21.184,3.028c7.854,0,19.124-0.887,21.438-3.256c-0.354,3.63-1.911,20.585-1.635,36.565   c0.31,18.016,4.969,15.053,2.328,28.874C79.854,79.628,50.923,90.346,17.688,80.561z M57.722,16.414   c13.683,0,20.841-2.042,20.841-3.135c0-1.093-7.158-3.134-20.841-3.134c-13.681,0-20.838,2.041-20.838,3.134   C36.884,14.372,44.042,16.414,57.722,16.414z M17.577,82.312c0,0,0.777,2.694,1.708,3.627c0,0,17.395,5.69,43.02,3.051   c0,0,1.708-3.106,4.038-0.467c0,0,6.986-0.731,12.269-2.752c1.338-0.513,1.243-3.927,1.243-3.927S49.879,91.788,17.577,82.312z"></path></g></svg>