<?xml version="1.0" encoding="utf-8"?>
<!-- Generator: Adobe Illustrator 23.0.1, SVG Export Plug-In . SVG Version: 6.00 Build 0)  -->
<svg version="1.1" id="Layer_1" xmlns="http://www.w3.org/2000/svg" xmlns:xlink="http://www.w3.org/1999/xlink" x="0px" y="0px"
	 viewBox="0 0 300 300" style="enable-background:new 0 0 300 300;" xml:space="preserve">
<style type="text/css">
	.st0{fill:#F7A005;}
</style>
<g>
	<path class="st0" d="M53.06,241.68c0,0-11.65-59.46,52.65-49.21c0,0,27.02,5.59,24.23-19.1c-2.78-24.56-18.32-72.41-20.33-130.11
		c8.38,6.59,40.76,9.08,63.55,9.08c23.56,0,57.37-2.66,64.31-9.77c-1.06,10.89-5.73,61.76-4.91,109.69
		c0.93,54.05,14.91,45.16,6.98,86.62C239.56,238.88,152.77,271.04,53.06,241.68z M173.17,49.24c41.05,0,62.52-6.13,62.52-9.4
		s-21.47-9.4-62.52-9.4c-41.04,0-62.51,6.12-62.51,9.4C110.65,43.12,132.13,49.24,173.17,49.24z M52.73,246.94
		c0,0,2.33,8.08,5.12,10.88c0,0,52.19,17.07,129.06,9.15c0,0,5.12-9.32,12.11-1.4c0,0,20.96-2.19,36.81-8.26
		c4.01-1.54,3.73-11.78,3.73-11.78S149.64,275.36,52.73,246.94z"/>
</g>
</svg>
