<svg height='300px' width='300px'  fill="#000000" xmlns="http://www.w3.org/2000/svg" xmlns:xlink="http://www.w3.org/1999/xlink" version="1.1" x="0px" y="0px" viewBox="0 0 1000 1000" style="enable-background:new 0 0 1000 1000;" xml:space="preserve"><circle cx="382" cy="162" r="80"></circle><polygon points="869.5,674.5 796.7,713.9 702.6,541.8 701.8,541.8 658.2,541.8 480.3,541.8 465,442.5 623.7,442.5 623.7,362.9   452.7,362.9 437.4,263.6 358.3,275.8 412.7,621.4 658.2,621.4 669.8,621.4 768.3,814.5 905.7,742 "></polygon><g><path d="M721.2,656.2c0-0.3,0.1-0.7,0.1-1h-0.6L721.2,656.2z"></path><path d="M644.8,658.3h-3.7c-12.6,115.9-110.8,206.1-230,206.1c-127.8,0-231.4-103.6-231.4-231.4c0-102.5,66.7-189.5,159.1-219.9   l-14.9-78.2c-1.9,0.6-13.7,3.9-15.6,4.5C186.9,381.9,100,497.3,100,633c0,171.8,139.3,311,311,311c127.2,0,236.5-76.3,284.7-185.7   L644.8,658.3z"></path></g></svg>